HIERARCHY
ROOT hip
{
OFFSET -0.24 89.68 0.19
CHANNELS 6 Xposition Yposition Zposition Zrotation Xrotation Yrotation
JOINT abdomen
{
OFFSET 0 7.23 0
CHANNELS 6 Xposition Yposition Zposition Zrotation Xrotation Yrotation
JOINT chest
{
OFFSET 0 16.54 0
CHANNELS 6 Xposition Yposition Zposition Zrotation Xrotation Yrotation
JOINT neck
{
OFFSET 0 34.21 0
CHANNELS 6 Xposition Yposition Zposition Zrotation Xrotation Yrotation
JOINT head
{
OFFSET 0 6.29 0
CHANNELS 6 Xposition Yposition Zposition Zrotation Xrotation Yrotation
End Site
{
OFFSET 0 21.21 0
}
}
}
JOINT lCollar
{
OFFSET 4.06 26.61 -1.12
CHANNELS 6 Xposition Yposition Zposition Zrotation Xrotation Yrotation
JOINT lShldr
{
OFFSET 14.17 0 0
CHANNELS 6 Xposition Yposition Zposition Zrotation Xrotation Yrotation
JOINT lForeArm
{
OFFSET 26.12 0 0
CHANNELS 6 Xposition Yposition Zposition Zrotation Xrotation Yrotation
JOINT lHand
{
OFFSET 27.71 0 0
CHANNELS 6 Xposition Yposition Zposition Zrotation Xrotation Yrotation
JOINT lThumb1
{
OFFSET 2.29 -0.46 1.83
CHANNELS 6 Xposition Yposition Zposition Zrotation Xrotation Yrotation
JOINT lThumb2
{
OFFSET 5.29 0 0
CHANNELS 6 Xposition Yposition Zposition Zrotation Xrotation Yrotation
JOINT lThumb3
{
OFFSET 3.01 0 0
CHANNELS 6 Xposition Yposition Zposition Zrotation Xrotation Yrotation
End Site
{
OFFSET 2.62 0 0
}
}
}
}
JOINT lIndex1
{
OFFSET 9.37 0.29 2.59
CHANNELS 6 Xposition Yposition Zposition Zrotation Xrotation Yrotation
JOINT lIndex2
{
OFFSET 4.34 0 0
CHANNELS 6 Xposition Yposition Zposition Zrotation Xrotation Yrotation
JOINT lIndex3
{
OFFSET 2.16 0 0
CHANNELS 6 Xposition Yposition Zposition Zrotation Xrotation Yrotation
End Site
{
OFFSET 2.20 0 0
}
}
}
}
JOINT lMid1
{
OFFSET 9.47 0.83 0.29
CHANNELS 6 Xposition Yposition Zposition Zrotation Xrotation Yrotation
JOINT lMid2
{
OFFSET 4.77 0 0
CHANNELS 6 Xposition Yposition Zposition Zrotation Xrotation Yrotation
JOINT lMid3
{
OFFSET 2.87 0 0
CHANNELS 6 Xposition Yposition Zposition Zrotation Xrotation Yrotation
End Site
{
OFFSET 2.09 0 0
}
}
}
}
JOINT lRing1
{
OFFSET 8.65 1.01 -1.70
CHANNELS 6 Xposition Yposition Zposition Zrotation Xrotation Yrotation
JOINT lRing2
{
OFFSET 4.54 0 0
CHANNELS 6 Xposition Yposition Zposition Zrotation Xrotation Yrotation
JOINT lRing3
{
OFFSET 2.50 0 0
CHANNELS 6 Xposition Yposition Zposition Zrotation Xrotation Yrotation
End Site
{
OFFSET 2.20 0 0
}
}
}
}
JOINT lPinky1
{
OFFSET 7.69 0.66 -3.90
CHANNELS 6 Xposition Yposition Zposition Zrotation Xrotation Yrotation
JOINT lPinky2
{
OFFSET 3.21 0 0
CHANNELS 6 Xposition Yposition Zposition Zrotation Xrotation Yrotation
JOINT lPinky3
{
OFFSET 1.92 0 0
CHANNELS 6 Xposition Yposition Zposition Zrotation Xrotation Yrotation
End Site
{
OFFSET 1.78 0 0
}
}
}
}
}
}
}
}
JOINT rCollar
{
OFFSET -4.06 26.61 -1.12
CHANNELS 6 Xposition Yposition Zposition Zrotation Xrotation Yrotation
JOINT rShldr
{
OFFSET -14.17 0 0
CHANNELS 6 Xposition Yposition Zposition Zrotation Xrotation Yrotation
JOINT rForeArm
{
OFFSET -26.12 0 0
CHANNELS 6 Xposition Yposition Zposition Zrotation Xrotation Yrotation
JOINT rHand
{
OFFSET -27.71 0 0
CHANNELS 6 Xposition Yposition Zposition Zrotation Xrotation Yrotation
JOINT rThumb1
{
OFFSET -2.29 -0.46 1.83
CHANNELS 6 Xposition Yposition Zposition Zrotation Xrotation Yrotation
JOINT rThumb2
{
OFFSET -5.29 0 0
CHANNELS 6 Xposition Yposition Zposition Zrotation Xrotation Yrotation
JOINT rThumb3
{
OFFSET -3.01 0 0
CHANNELS 6 Xposition Yposition Zposition Zrotation Xrotation Yrotation
End Site
{
OFFSET -2.62 0 0
}
}
}
}
JOINT rIndex1
{
OFFSET -9.37 0.29 2.59
CHANNELS 6 Xposition Yposition Zposition Zrotation Xrotation Yrotation
JOINT rIndex2
{
OFFSET -4.34 0 0
CHANNELS 6 Xposition Yposition Zposition Zrotation Xrotation Yrotation
JOINT rIndex3
{
OFFSET -2.16 0 0
CHANNELS 6 Xposition Yposition Zposition Zrotation Xrotation Yrotation
End Site
{
OFFSET -2.20 0 0
}
}
}
}
JOINT rMid1
{
OFFSET -9.47 0.83 0.29
CHANNELS 6 Xposition Yposition Zposition Zrotation Xrotation Yrotation
JOINT rMid2
{
OFFSET -4.77 0 0
CHANNELS 6 Xposition Yposition Zposition Zrotation Xrotation Yrotation
JOINT rMid3
{
OFFSET -2.87 0 0
CHANNELS 6 Xposition Yposition Zposition Zrotation Xrotation Yrotation
End Site
{
OFFSET -2.09 0 0
}
}
}
}
JOINT rRing1
{
OFFSET -8.65 1.01 -1.70
CHANNELS 6 Xposition Yposition Zposition Zrotation Xrotation Yrotation
JOINT rRing2
{
OFFSET -4.54 0 0
CHANNELS 6 Xposition Yposition Zposition Zrotation Xrotation Yrotation
JOINT rRing3
{
OFFSET -2.50 0 0
CHANNELS 6 Xposition Yposition Zposition Zrotation Xrotation Yrotation
End Site
{
OFFSET -2.20 0 0
}
}
}
}
JOINT rPinky1
{
OFFSET -7.69 0.66 -3.90
CHANNELS 6 Xposition Yposition Zposition Zrotation Xrotation Yrotation
JOINT rPinky2
{
OFFSET -3.21 0 0
CHANNELS 6 Xposition Yposition Zposition Zrotation Xrotation Yrotation
JOINT rPinky3
{
OFFSET -1.92 0 0
CHANNELS 6 Xposition Yposition Zposition Zrotation Xrotation Yrotation
End Site
{
OFFSET -1.78 0 0
}
}
}
}
}
}
}
}
}
}
JOINT lThigh
{
OFFSET 8.73 -0 0
CHANNELS 6 Xposition Yposition Zposition Zrotation Xrotation Yrotation
JOINT lShin
{
OFFSET 0 -46.66 0
CHANNELS 6 Xposition Yposition Zposition Zrotation Xrotation Yrotation
JOINT lFoot
{
OFFSET 0 -40.14 0
CHANNELS 6 Xposition Yposition Zposition Zrotation Xrotation Yrotation
JOINT lToes
{
OFFSET 0 -8.88 14.22
CHANNELS 6 Xposition Yposition Zposition Zrotation Xrotation Yrotation
End Site
{
OFFSET 0 0 6.29
}
}
}
}
}
JOINT rThigh
{
OFFSET -8.73 0 -0
CHANNELS 6 Xposition Yposition Zposition Zrotation Xrotation Yrotation
JOINT rShin
{
OFFSET 0 -46.66 0
CHANNELS 6 Xposition Yposition Zposition Zrotation Xrotation Yrotation
JOINT rFoot
{
OFFSET 0 -40.14 0
CHANNELS 6 Xposition Yposition Zposition Zrotation Xrotation Yrotation
JOINT rToes
{
OFFSET 0 -8.88 14.22
CHANNELS 6 Xposition Yposition Zposition Zrotation Xrotation Yrotation
End Site
{
OFFSET 0 0 6.29
}
}
}
}
}
}
MOTION
Frames: 7
Frame Time: 0.03
-0.24 89.68 0.19 -3.11 -3.31 -43.31 0 7.23 0 -1.87 6.96 8.00 0 16.54 0 -4.68 15.51 16.47 0 34.21 0 0.82 26.87 -1.43 0 6.29 0 -1.77 -28.45 19.53 4.06 26.61 -1.12 -1.67 -3.43 4.16 14.17 0 0 -69.69 -1.29 -3.24 26.12 0 0 3.37 5.75 -48.05 27.71 0 0 14.07 12.10 -1.83 2.29 -0.46 1.83 61.44 74.02 -94.47 5.29 0 0 0.21 3.02 0.81 3.01 0 0 12.48 -0 0 9.37 0.29 2.59 0.51 -1.66 -8.48 4.34 0 0 -16.25 -0.16 2.44 2.16 0 0 -2.16 0 0 9.47 0.83 0.29 -7.79 -4.31 9.25 4.77 0 0 -21.86 -0.38 1.62 2.87 0 0 3.95 0.07 0.39 8.65 1.01 -1.70 -24.65 -2.57 14.88 4.54 0 0 -32.06 0.64 -1.53 2.50 0 0 6.76 0 0 7.69 0.66 -3.90 -23.65 -14.85 19.28 3.21 0 0 -39.59 0.07 3.58 1.92 0 0 4.41 0 0 -4.06 26.61 -1.12 5.14 -2.73 4.26 -14.17 0 0 61.25 -12.08 -21.37 -26.12 0 0 6.56 -1.04 42.19 -27.71 0 0 17.41 5.73 8.30 -2.29 -0.46 1.83 -37.31 60.59 62.83 -5.29 0 0 19.96 1.42 -7.53 -3.01 0 0 -12.48 -0 0 -9.37 0.29 2.59 -0.59 -2.45 0.28 -4.34 0 0 16.74 -0.16 -2.82 -2.16 0 0 2.16 0 0 -9.47 0.83 0.29 7.28 -5.19 -1.95 -4.77 0 0 30.49 -0.76 -2.54 -2.87 0 0 -3.95 0.07 -0.39 -8.65 1.01 -1.70 16.18 2.37 -7.76 -4.54 0 0 37.48 1.09 2.38 -2.50 0 0 -6.76 0 0 -7.69 0.66 -3.90 16.30 -9.18 -10.91 -3.21 0 0 41.69 0.74 -1.95 -1.92 0 0 -4.41 0 0 8.73 -0 0 14.84 -23.18 20.50 0 -46.66 0 7.41 38.99 -16.99 0 -40.14 0 -7.89 -10.30 7.22 0 -8.88 14.22 0 0 0 -8.73 0 -0 -15.02 -0.62 -22.58 0 -46.66 0 -4.68 38.63 -7.71 0 -40.14 0 20.97 -23.81 -3.40 0 -8.88 14.22 0 0 0 
-0.22 89.68 0.19 -3.06 -3.29 -43.45 0 7.23 0 -1.91 6.94 8.01 0 16.54 0 -4.74 15.47 16.49 0 34.21 0 0.79 26.78 -1.46 0 6.29 0 -1.85 -28.34 19.70 4.06 26.61 -1.12 -1.67 -3.42 4.15 14.17 0 0 -69.64 -1.28 -3.23 26.12 0 0 3.38 5.77 -48.10 27.71 0 0 14.05 12.11 -1.83 2.29 -0.46 1.83 61.65 74.43 -94.57 5.29 0 0 -0.18 3.01 0.95 3.01 0 0 12.48 -0 0 9.37 0.29 2.59 0.17 -1.59 -8.45 4.34 0 0 -16.64 -0.17 2.43 2.16 0 0 -2.16 0 0 9.47 0.83 0.29 -8.16 -4.37 9.25 4.77 0 0 -22.22 -0.39 1.63 2.87 0 0 3.95 0.07 0.39 8.65 1.01 -1.70 -24.99 -2.66 14.85 4.54 0 0 -32.45 0.65 -1.55 2.50 0 0 6.76 0 0 7.69 0.66 -3.90 -23.99 -14.97 19.26 3.21 0 0 -39.94 0.05 3.65 1.92 0 0 4.41 0 0 -4.06 26.61 -1.12 5.18 -2.74 4.33 -14.17 0 0 61.25 -12.04 -21.33 -26.12 0 0 6.56 -1.01 42.04 -27.71 0 0 17.23 5.71 8.25 -2.29 -0.46 1.83 -37.41 60.87 63.25 -5.29 0 0 19.95 1.41 -7.60 -3.01 0 0 -12.48 -0 0 -9.37 0.29 2.59 -0.79 -2.45 0.28 -4.34 0 0 16.66 -0.15 -2.82 -2.16 0 0 2.16 0 0 -9.47 0.83 0.29 7.07 -5.19 -1.97 -4.77 0 0 30.29 -0.75 -2.52 -2.87 0 0 -3.95 0.07 -0.39 -8.65 1.01 -1.70 16.01 2.40 -7.78 -4.54 0 0 37.25 1.08 2.37 -2.50 0 0 -6.76 0 0 -7.69 0.66 -3.90 16.10 -9.14 -10.92 -3.21 0 0 41.49 0.75 -1.91 -1.92 0 0 -4.41 0 0 8.73 -0 0 14.80 -23.19 20.48 0 -46.66 0 7.45 38.97 -16.84 0 -40.14 0 -7.98 -10.31 7.22 0 -8.88 14.22 0 0 -0 -8.73 0 -0 -15.03 -0.74 -22.60 0 -46.66 0 -4.85 38.64 -7.50 0 -40.14 0 20.99 -23.80 -3.40 0 -8.88 14.22 0 0 -0 
-0.21 89.68 0.19 -2.99 -3.25 -43.58 0 7.23 0 -1.93 6.92 7.98 0 16.54 0 -4.77 15.44 16.43 0 34.21 0 0.68 26.73 -1.40 0 6.29 0 -2.02 -28.28 19.94 4.06 26.61 -1.12 -1.70 -3.42 4.13 14.17 0 0 -69.61 -1.28 -3.17 26.12 0 0 3.38 5.78 -48.16 27.71 0 0 14.01 12.10 -1.83 2.29 -0.46 1.83 61.82 74.78 -94.61 5.29 0 0 -0.63 2.99 1.10 3.01 0 0 12.48 -0 0 9.37 0.29 2.59 -0.14 -1.53 -8.42 4.34 0 0 -16.97 -0.19 2.42 2.16 0 0 -2.16 0 0 9.47 0.83 0.29 -8.52 -4.43 9.25 4.77 0 0 -22.54 -0.39 1.64 2.87 0 0 3.95 0.07 0.39 8.65 1.01 -1.70 -25.37 -2.76 14.81 4.54 0 0 -32.78 0.66 -1.56 2.50 0 0 6.76 0 0 7.69 0.66 -3.90 -24.34 -15.09 19.21 3.21 0 0 -40.26 0.03 3.72 1.92 0 0 4.41 0 0 -4.06 26.61 -1.12 5.16 -2.74 4.37 -14.17 0 0 61.29 -12.03 -21.25 -26.12 0 0 6.54 -1.01 41.81 -27.71 0 0 17.08 5.78 8.09 -2.29 -0.46 1.83 -37.32 61.09 63.33 -5.29 0 0 19.96 1.42 -7.57 -3.01 0 0 -12.48 -0 0 -9.37 0.29 2.59 -1.02 -2.45 0.28 -4.34 0 0 16.46 -0.14 -2.82 -2.16 0 0 2.16 0 0 -9.47 0.83 0.29 6.83 -5.18 -1.96 -4.77 0 0 30.08 -0.74 -2.51 -2.87 0 0 -3.95 0.07 -0.39 -8.65 1.01 -1.70 15.75 2.43 -7.79 -4.54 0 0 37.00 1.07 2.35 -2.50 0 0 -6.76 0 0 -7.69 0.66 -3.90 15.86 -9.09 -10.94 -3.21 0 0 41.25 0.76 -1.87 -1.92 0 0 -4.41 0 0 8.73 -0 0 14.76 -23.23 20.47 0 -46.66 0 7.47 38.95 -16.69 0 -40.14 0 -8.06 -10.32 7.20 0 -8.88 14.22 0 0 0 -8.73 0 -0 -15.04 -0.90 -22.60 0 -46.66 0 -5.01 38.65 -7.34 0 -40.14 0 21.03 -23.78 -3.40 0 -8.88 14.22 0 0 0 
-0.19 89.67 0.19 -2.94 -3.22 -43.64 0 7.23 0 -1.94 6.93 7.89 0 16.54 0 -4.78 15.45 16.26 0 34.21 0 0.58 26.63 -1.29 0 6.29 0 -2.29 -28.21 20.25 4.06 26.61 -1.12 -1.70 -3.42 4.13 14.17 0 0 -69.60 -1.28 -3.14 26.12 0 0 3.40 5.78 -48.25 27.71 0 0 13.94 12.10 -1.81 2.29 -0.46 1.83 61.69 75.17 -94.29 5.29 0 0 -1.17 2.98 1.21 3.01 0 0 12.48 -0 0 9.37 0.29 2.59 -0.46 -1.48 -8.42 4.34 0 0 -17.26 -0.20 2.41 2.16 0 0 -2.16 0 0 9.47 0.83 0.29 -8.81 -4.47 9.24 4.77 0 0 -22.83 -0.40 1.65 2.87 0 0 3.95 0.07 0.39 8.65 1.01 -1.70 -25.65 -2.84 14.79 4.54 0 0 -33.06 0.67 -1.57 2.50 0 0 6.76 0 0 7.69 0.66 -3.90 -24.61 -15.18 19.20 3.21 0 0 -40.52 0.01 3.78 1.92 0 0 4.41 0 0 -4.06 26.61 -1.12 5.18 -2.75 4.40 -14.17 0 0 61.28 -12.02 -21.19 -26.12 0 0 6.52 -1.01 41.66 -27.71 0 0 16.99 5.80 7.92 -2.29 -0.46 1.83 -37.02 61.28 63.08 -5.29 0 0 19.99 1.48 -7.46 -3.01 0 0 -12.48 -0 0 -9.37 0.29 2.59 -1.24 -2.45 0.27 -4.34 0 0 16.19 -0.13 -2.82 -2.16 0 0 2.16 0 0 -9.47 0.83 0.29 6.61 -5.17 -1.96 -4.77 0 0 29.81 -0.73 -2.49 -2.87 0 0 -3.95 0.07 -0.39 -8.65 1.01 -1.70 15.49 2.46 -7.77 -4.54 0 0 36.76 1.06 2.35 -2.50 0 0 -6.76 0 0 -7.69 0.66 -3.90 15.60 -9.04 -10.95 -3.21 0 0 40.98 0.77 -1.83 -1.92 0 0 -4.41 0 0 8.73 -0 0 14.70 -23.29 20.41 0 -46.66 0 7.55 38.97 -16.60 0 -40.14 0 -8.16 -10.35 7.19 0 -8.88 14.22 0 0 0 -8.73 0 -0 -15.03 -1.02 -22.62 0 -46.66 0 -5.17 38.69 -7.22 0 -40.14 0 21.09 -23.78 -3.39 0 -8.88 14.22 0 0 0 
-0.18 89.66 0.19 -2.89 -3.16 -43.67 0 7.23 0 -1.92 6.93 7.77 0 16.54 0 -4.75 15.46 16.01 0 34.21 0 0.47 26.55 -1.16 0 6.29 0 -2.61 -28.18 20.62 4.06 26.61 -1.12 -1.66 -3.43 4.12 14.17 0 0 -69.64 -1.28 -3.11 26.12 0 0 3.42 5.80 -48.33 27.71 0 0 14.01 12.10 -1.81 2.29 -0.46 1.83 62.10 75.61 -94.59 5.29 0 0 -1.59 2.96 1.38 3.01 0 0 12.48 -0 0 9.37 0.29 2.59 -0.72 -1.45 -8.42 4.34 0 0 -17.53 -0.21 2.41 2.16 0 0 -2.16 0 0 9.47 0.83 0.29 -9.09 -4.52 9.24 4.77 0 0 -23.10 -0.41 1.66 2.87 0 0 3.95 0.07 0.39 8.65 1.01 -1.70 -25.90 -2.90 14.76 4.54 0 0 -33.33 0.67 -1.57 2.50 0 0 6.76 0 0 7.69 0.66 -3.90 -24.87 -15.27 19.20 3.21 0 0 -40.81 -0 3.84 1.92 0 0 4.41 0 0 -4.06 26.61 -1.12 5.22 -2.75 4.45 -14.17 0 0 61.19 -11.97 -21.18 -26.12 0 0 6.54 -0.96 41.53 -27.71 0 0 16.88 5.77 7.78 -2.29 -0.46 1.83 -36.95 61.53 63.22 -5.29 0 0 20.02 1.47 -7.44 -3.01 0 0 -12.48 -0 0 -9.37 0.29 2.59 -1.51 -2.45 0.27 -4.34 0 0 15.91 -0.12 -2.82 -2.16 0 0 2.16 0 0 -9.47 0.83 0.29 6.36 -5.16 -1.95 -4.77 0 0 29.52 -0.72 -2.48 -2.87 0 0 -3.95 0.07 -0.39 -8.65 1.01 -1.70 15.28 2.50 -7.80 -4.54 0 0 36.48 1.04 2.34 -2.50 0 0 -6.76 0 0 -7.69 0.66 -3.90 15.30 -8.98 -10.97 -3.21 0 0 40.70 0.78 -1.78 -1.92 0 0 -4.41 0 0 8.73 -0 0 14.65 -23.40 20.34 0 -46.66 0 7.67 39.01 -16.54 0 -40.14 0 -8.25 -10.39 7.16 0 -8.88 14.22 0 0 0 -8.73 0 -0 -14.99 -1.14 -22.62 0 -46.66 0 -5.31 38.73 -7.15 0 -40.14 0 21.16 -23.79 -3.37 0 -8.88 14.22 0 0 0 
-0.18 89.65 0.18 -2.84 -3.12 -43.67 0 7.23 0 -1.92 6.95 7.62 0 16.54 0 -4.74 15.49 15.71 0 34.21 0 0.37 26.44 -1.06 0 6.29 0 -2.91 -28.17 21.13 4.06 26.61 -1.12 -1.61 -3.43 4.11 14.17 0 0 -69.68 -1.30 -3.06 26.12 0 0 3.41 5.77 -48.44 27.71 0 0 13.93 12.05 -1.77 2.29 -0.46 1.83 62.03 76.03 -94.36 5.29 0 0 -2.14 2.94 1.49 3.01 0 0 12.48 -0 0 9.37 0.29 2.59 -1.01 -1.41 -8.42 4.34 0 0 -17.78 -0.22 2.40 2.16 0 0 -2.16 0 0 9.47 0.83 0.29 -9.43 -4.56 9.24 4.77 0 0 -23.30 -0.41 1.67 2.87 0 0 3.95 0.07 0.39 8.65 1.01 -1.70 -26.23 -2.98 14.72 4.54 0 0 -33.58 0.68 -1.58 2.50 0 0 6.76 0 0 7.69 0.66 -3.90 -25.15 -15.36 19.18 3.21 0 0 -41.01 -0.01 3.88 1.92 0 0 4.41 0 0 -4.06 26.61 -1.12 5.25 -2.75 4.52 -14.17 0 0 61.16 -11.94 -21.10 -26.12 0 0 6.54 -0.96 41.33 -27.71 0 0 16.74 5.77 7.66 -2.29 -0.46 1.83 -36.79 61.72 63.21 -5.29 0 0 20.03 1.50 -7.38 -3.01 0 0 -12.48 -0 0 -9.37 0.29 2.59 -1.80 -2.44 0.24 -4.34 0 0 15.62 -0.10 -2.82 -2.16 0 0 2.16 0 0 -9.47 0.83 0.29 6.07 -5.15 -1.95 -4.77 0 0 29.25 -0.70 -2.47 -2.87 0 0 -3.95 0.07 -0.39 -8.65 1.01 -1.70 14.95 2.56 -7.82 -4.54 0 0 36.19 1.03 2.33 -2.50 0 0 -6.76 0 0 -7.69 0.66 -3.90 15.00 -8.91 -10.97 -3.21 0 0 40.42 0.79 -1.73 -1.92 0 0 -4.41 0 0 8.73 -0 0 14.60 -23.48 20.30 0 -46.66 0 7.74 39.01 -16.51 0 -40.14 0 -8.30 -10.41 7.14 0 -8.88 14.22 0 0 -0 -8.73 0 -0 -14.96 -1.24 -22.62 0 -46.66 0 -5.43 38.75 -7.13 0 -40.14 0 21.24 -23.78 -3.35 0 -8.88 14.22 0 0 -0 
-0.17 89.65 0.18 -2.76 -3.07 -43.66 0 7.23 0 -1.92 6.96 7.46 0 16.54 0 -4.73 15.53 15.38 0 34.21 0 0.24 26.30 -0.81 0 6.29 0 -3.35 -28.32 21.92 4.06 26.61 -1.12 -1.59 -3.43 4.09 14.17 0 0 -69.69 -1.30 -3.01 26.12 0 0 3.43 5.81 -48.53 27.71 0 0 14.00 12.10 -1.71 2.29 -0.46 1.83 61.81 76.41 -93.93 5.29 0 0 -2.64 2.93 1.63 3.01 0 0 12.48 -0 0 9.37 0.29 2.59 -1.30 -1.39 -8.46 4.34 0 0 -18.04 -0.23 2.39 2.16 0 0 -2.16 0 0 9.47 0.83 0.29 -9.60 -4.60 9.23 4.77 0 0 -23.62 -0.42 1.68 2.87 0 0 3.95 0.07 0.39 8.65 1.01 -1.70 -26.39 -3.02 14.71 4.54 0 0 -33.77 0.69 -1.59 2.50 0 0 6.76 0 0 7.69 0.66 -3.90 -25.41 -15.45 19.15 3.21 0 0 -41.30 -0.03 3.94 1.92 0 0 4.41 0 0 -4.06 26.61 -1.12 5.26 -2.75 4.62 -14.17 0 0 61.14 -11.94 -21.04 -26.12 0 0 6.55 -0.98 41.12 -27.71 0 0 16.64 5.79 7.46 -2.29 -0.46 1.83 -36.78 61.94 63.48 -5.29 0 0 20.06 1.46 -7.37 -3.01 0 0 -12.48 -0 0 -9.37 0.29 2.59 -2.02 -2.44 0.22 -4.34 0 0 15.33 -0.09 -2.82 -2.16 0 0 2.16 0 0 -9.47 0.83 0.29 5.78 -5.14 -1.97 -4.77 0 0 28.96 -0.69 -2.45 -2.87 0 0 -3.95 0.07 -0.39 -8.65 1.01 -1.70 14.70 2.60 -7.80 -4.54 0 0 35.85 1.02 2.32 -2.50 0 0 -6.76 0 0 -7.69 0.66 -3.90 14.74 -8.86 -10.96 -3.21 0 0 40.13 0.80 -1.68 -1.92 0 0 -4.41 0 0 8.73 -0 0 14.58 -23.57 20.31 0 -46.66 0 7.76 38.99 -16.51 0 -40.14 0 -8.30 -10.41 7.13 0 -8.88 14.22 0 0 0 -8.73 0 -0 -14.93 -1.35 -22.62 0 -46.66 0 -5.57 38.75 -7.11 0 -40.14 0 21.31 -23.76 -3.34 0 -8.88 14.22 0 0 0 
